<?xml version="1.0" standalone="no"?>
<!DOCTYPE svg PUBLIC "-//W3C//DTD SVG 20010904//EN"
 "http://www.w3.org/TR/2001/REC-SVG-20010904/DTD/svg10.dtd">
<svg version="1.0" xmlns="http://www.w3.org/2000/svg"
 width="590.000000pt" height="590.000000pt" viewBox="0 0 590.000000 590.000000"
 preserveAspectRatio="xMidYMid meet">
<metadata>
Created by potrace 1.14, written by Peter Selinger 2001-2017
</metadata>
<g transform="translate(0.000000,590.000000) scale(0.100000,-0.100000)"
fill="#000000" stroke="none">
<path d="M4525 5513 c-324 -69 -664 -342 -983 -787 -93 -129 -203 -247 -292
-313 -30 -22 -120 -81 -199 -132 -254 -162 -293 -208 -363 -426 l-43 -135
-474 3 -475 2 -49 80 c-26 44 -51 85 -53 92 -3 6 8 30 25 54 38 52 71 154 71
220 0 127 -46 236 -139 330 -91 91 -149 114 -291 113 -73 0 -119 -6 -150 -18
-156 -58 -256 -201 -267 -381 -14 -219 110 -395 311 -440 l51 -11 46 -109 47
-109 -60 -85 c-193 -274 -318 -482 -349 -581 -35 -114 -78 -406 -95 -655 -6
-95 -10 -105 -61 -209 -105 -210 -209 -364 -319 -471 -44 -43 -75 -65 -98 -69
-62 -12 -154 -66 -200 -117 -156 -174 -150 -460 14 -613 43 -41 107 -78 171
-99 14 -5 18 -28 24 -141 l7 -136 93 0 93 0 8 136 9 135 58 24 c110 44 208
153 242 269 20 66 19 200 -1 260 l-16 48 38 40 c51 53 209 182 364 298 463
347 640 562 712 870 l21 90 321 0 322 0 22 -127 c32 -182 69 -325 98 -377 32
-57 190 -209 282 -270 167 -111 360 -182 577 -214 l120 -17 9 -136 8 -137 -64
-63 c-77 -76 -102 -136 -101 -241 2 -114 60 -213 157 -268 l51 -29 10 -143 10
-143 91 -3 92 -3 6 118 c10 175 10 175 62 202 125 67 191 225 151 362 -21 71
-67 139 -118 175 l-41 28 6 91 c4 49 9 117 12 150 l6 60 96 19 c287 55 581
205 790 401 123 116 211 234 282 380 112 228 157 415 167 680 12 347 -38 551
-212 863 -47 84 -85 155 -85 157 0 3 18 5 39 5 63 0 260 37 344 64 283 93 427
257 427 485 l0 77 -172 -4 c-131 -3 -191 0 -246 12 -136 29 -224 82 -260 159
-19 40 -20 45 -5 117 51 246 -128 501 -386 550 -75 14 -213 11 -296 -7z m593
-841 c93 -93 268 -158 460 -169 119 -7 122 -11 60 -78 -96 -105 -288 -166
-595 -190 l-73 -5 -86 117 -87 117 132 128 c72 70 133 128 136 128 2 0 26 -22
53 -48z m-3597 -1007 l73 -125 504 0 505 0 -6 -57 c-24 -224 -28 -308 -25
-522 l3 -241 -396 0 -396 0 -6 -88 c-3 -49 -13 -117 -22 -153 -22 -87 -93
-230 -153 -309 -69 -92 -247 -259 -386 -365 -280 -213 -385 -296 -448 -354
l-66 -61 -45 30 c-25 16 -50 30 -56 30 -18 0 -13 9 38 74 83 104 190 275 257
411 l64 130 10 155 c34 529 115 742 448 1184 45 60 82 114 82 121 0 6 -23 64
-51 130 -48 111 -50 119 -34 131 10 8 21 11 25 9 4 -3 40 -61 81 -130z"/>
</g>
</svg>
