<svg xmlns="http://www.w3.org/2000/svg" viewBox="0 0 500 500"><defs><style>.cls-1{fill:#bf1d73;}.cls-2,.cls-3{fill:none;}.cls-2{stroke:#a41363;stroke-miterlimit:10;stroke-width:4px;}.cls-4{fill:#fff;}</style></defs><g id="Layer_2" data-name="Layer 2"><g id="Layer_1-2" data-name="Layer 1"><path class="cls-1" d="M465.3,10.46q-215.3,9.62-430.6,0A25.47,25.47,0,0,0,8.05,34.7Q-1.58,250,8.05,465.3A25.47,25.47,0,0,0,34.7,489.54q215.29-9.62,430.6,0A25.47,25.47,0,0,0,492,465.3q9.63-215.3,0-430.6A25.47,25.47,0,0,0,465.3,10.46Z"/><path class="cls-2" d="M465.3,10.46q-215.3,9.62-430.6,0A25.47,25.47,0,0,0,8.05,34.7Q-1.58,250,8.05,465.3A25.47,25.47,0,0,0,34.7,489.54q215.29-9.62,430.6,0A25.47,25.47,0,0,0,492,465.3q9.63-215.3,0-430.6A25.47,25.47,0,0,0,465.3,10.46Z"/><path d="M421.8,171c-3.58-4.84-12.86-17.68-15.76-22.67H406l-12.32-18.39,20.15-19.61v0c.24-.2.5-.39.72-.6h0c.62-.52,1.21-1.08,1.8-1.64a1.76,1.76,0,0,0,.14.23,83.79,83.79,0,0,0,9.87-13.67s0-.09,0-.13c0-.35-.06-3.92,0-4.28h0c5-21.75-12.31-41.12-34.37-42.6C355.18,44.5,320,77.34,293.26,116.75c-15.93,23.47-48.79,32.84-55.36,45.51-14.68,28.34-19.73,71.05-15.68,105.08h-1c.44,4.89,1,9.59,1.68,14.08h1.06a323.23,323.23,0,0,0,9,41.77,121.88,121.88,0,0,0,75.74,35.59V359a109,109,0,0,0,27.28-.51l0-.3C421.33,349.88,471.5,242,421.8,171Z"/><path d="M221.2,267.34c.44,4.89,1,9.59,1.68,14.08H171.36C164.75,333.19,110,353.7,82,383.66c9.29,18.4-2.3,42.44-21.94,47l-1.54,22H44.41l-1.54-22c-33.95-8.16-32.51-59.44,1.82-65.74h0c15.09-10,30-38.63,35.15-50.47.58-8.51,3.46-47.27,8.59-61.26,4.77-13,24.6-40.82,31.86-50.79l-7.45-17.31c-40.9-5.18-37.09-67.35,4.43-67.23,28.27-1,44.47,35.46,25.5,55.88l9,15.26h75.69q2-7.11,4.68-14a229.13,229.13,0,0,0-10.76,50.42,194,194,0,0,1,2.81-22.31H143.75l-12.28-20.82a33.67,33.67,0,0,1-3.86,1.53l8.81,20.47c-33,43.07-40.42,57.57-42.61,112.33-.87,4.31-12.15,29.74-29.91,50a33.71,33.71,0,0,1,9.55,5.76c28.45-30.72,86.89-51.19,84.61-105Z"/><path d="M481.41,112.26c5.24,38.71-38.49,49-65.92,49.88,2.21,2.81,4.31,5.73,6.26,8.74-3.56-4.83-12.83-17.64-15.71-22.6,14.42-.15,50.86-1.57,59.9-20.81-13.93.28-39.89-2.73-49.47-19.23a83.79,83.79,0,0,0,9.87-13.67C430.72,117.2,467.75,113.55,481.41,112.26Z"/><path class="cls-3" d="M465.94,127.47c-9.07,19.26-45.52,20.66-60,20.81l-12.32-18.39,20.15-19.61v0a33.85,33.85,0,0,0,2.53-2.25C425.79,124.7,451.94,127.75,465.94,127.47Z"/><path class="cls-4" d="M316.11,364.59c-37.62,0-70.12-15.85-89.17-43.5l-.49-.72-.25-.83c-12.19-40.84-15.84-104.08.69-146.21,3.94-16.9,16.66-24.77,30.12-33.11,11-6.79,22.34-13.82,31.76-26.64,40.23-59.27,75.7-71.72,98.37-71.72,1.71,0,3.44.07,5.15.21a43.12,43.12,0,0,1,37.92,27.67c5.61,15,1.92,30.85-9.89,42.43l-5,4.86-.22-.36c-3.07,3-6.84,6.63-10.12,9.84-1.46,1.43-2.82,2.77-4,4C433.57,174,461.79,227,434.67,292c-9.13,21.91-25.86,40.44-48.37,53.59a141.24,141.24,0,0,1-70.18,19Z"/><path d="M387.14,47.36c1.58,0,3.17.07,4.76.2,30.63,1.81,47.85,37.85,24.57,60.68a1.76,1.76,0,0,1-.14-.23c-4.37,3.87-18,17.44-22.68,21.88,36.53,47.81,61.66,98.34,36,160-18.2,43.66-66.84,69.17-113.49,69.17C283,359.09,251,346.26,231.47,318c-12.25-41.06-15.17-103,.69-143,6.08-27.41,39-28,61.1-58.21,25.58-37.7,58.89-69.39,93.88-69.39m0-11c-18.88,0-38.16,7.72-57.32,23-15.63,12.42-30.95,29.61-45.55,51.09-8.78,11.92-19.64,18.64-30.15,25.15-13.74,8.5-27.94,17.29-32.49,36.14-16.82,43.29-13.12,107.8-.7,149.43l.5,1.66,1,1.43a101.54,101.54,0,0,0,41.66,34.92,124.82,124.82,0,0,0,52,11,146.86,146.86,0,0,0,73-19.71c23.56-13.76,41.08-33.2,50.68-56.22,27.36-65.65.77-119.09-31.5-163.12l.59-.58,5.14-5,.25.42,9.94-9.77c13.41-13.15,17.59-31.2,11.19-48.28a48.6,48.6,0,0,0-42.68-31.22c-1.83-.15-3.7-.23-5.54-.23Z"/><path d="M406,148.28c1.5,2.24,3,4.66,4.48,7.07l-11.28-15.59a35.9,35.9,0,0,1,4.58,5.31l0,.05C404.58,146.12,405.31,147.18,406,148.28Z"/><path d="M421.79,170.93c-3.75-3.42-7.52-9.5-11.27-15.58l11.23,15.53Z"/><path d="M347.61,405.27A25.34,25.34,0,0,1,331,429l-1.65,23.6H315.21L313.56,429a25.31,25.31,0,0,1-3.23-46.1l-1.67-24a106.81,106.81,0,0,0,14.63.6,108.51,108.51,0,0,0,12.65-1.11l-1.72,24.47A25.32,25.32,0,0,1,347.61,405.27Z"/><rect class="cls-3" width="500" height="500"/></g></g></svg>