<svg xmlns="http://www.w3.org/2000/svg" viewBox="0 0 504.28 500"><defs><style>.cls-1{fill:none;}.cls-2{fill:#bf1d73;stroke:#a41363;stroke-miterlimit:10;stroke-width:4px;}</style></defs><g id="Layer_2" data-name="Layer 2"><g id="Layer_1-2" data-name="Layer 1"><rect class="cls-1" width="500" height="500"/><path d="M439,166.17c-3.89-5.27-14-19.23-17.14-24.66h-.07c-1.42-2.1-11.74-17.5-13.41-20l21.92-21.33v0a10.12,10.12,0,0,0,.79-.65s0,0,0,0c.68-.56,1.32-1.17,2-1.78l.15.25A90.88,90.88,0,0,0,443.91,83.1a.66.66,0,0,0,0-.14c0-.38-.07-4.26,0-4.65h0c5.42-23.66-13.38-44.73-37.37-46.33-39.94-3.33-78.2,32.39-107.27,75.24-17.33,25.53-53.07,35.72-60.21,49.5C223,187.54,217.53,234,221.92,271h-1.1c.47,5.32,1.09,10.43,1.83,15.31h1.14a353.54,353.54,0,0,0,9.76,45.42,132.57,132.57,0,0,0,82.37,38.72v.2a118.54,118.54,0,0,0,29.67-.56l0-.32C438.47,360.77,493,243.41,439,166.17Z"/><path d="M220.82,271c.47,5.32,1.09,10.43,1.83,15.31h-56c-7.19,56.3-66.78,78.61-97.16,111.2,10.1,20-2.49,46.14-23.86,51.09l-1.67,23.92H28.55L26.88,448.6c-36.93-8.87-35.37-64.64,2-71.49h0c16.42-10.87,32.58-42,38.23-54.89.63-9.25,3.77-51.4,9.35-66.62,5.18-14.13,26.75-44.39,34.64-55.23L103,181.54c-44.48-5.63-40.34-73.23,4.82-73.11,30.74-1,48.36,38.57,27.73,60.77l9.8,16.6h82.32q2.16-7.73,5.09-15.27A249.32,249.32,0,0,0,221,225.37a212.36,212.36,0,0,1,3.06-24.27h-87.5l-13.36-22.64a34.58,34.58,0,0,1-4.2,1.66l9.59,22.27c-35.91,46.83-44,62.61-46.35,122.17-.94,4.68-13.2,32.34-32.53,54.39a36.4,36.4,0,0,1,10.39,6.26c30.95-33.41,94.5-55.67,92-114.22Z"/><path d="M503.81,102.34c5.7,42.1-41.87,53.26-71.69,54.25,2.4,3.06,4.68,6.23,6.8,9.5-3.87-5.25-13.95-19.18-17.08-24.58,15.68-.16,55.31-1.7,65.14-22.62-15.15.29-43.38-3-53.8-20.92A90.88,90.88,0,0,0,443.91,83.1C448.68,107.72,489,103.74,503.81,102.34Z"/><path class="cls-1" d="M487,118.89c-9.86,20.94-49.5,22.47-65.21,22.62-1.42-2.1-11.74-17.5-13.41-20l21.92-21.33v0A35.63,35.63,0,0,0,433,97.72C443.32,115.87,471.75,119.19,487,118.89Z"/><path class="cls-2" d="M447.46,295.56c28-67.09.63-122-39.1-174,5.08-4.84,19.92-19.59,24.67-23.8l.15.25c25.32-24.83,6.59-64-26.72-66-39.94-3.33-78.2,32.39-107.27,75.24-24.06,32.83-59.84,33.5-66.45,63.31C215.48,214,218.66,281.41,232,326.06,283.08,400.23,413.64,376.7,447.46,295.56Z"/><path d="M421.84,141.51c1.63,2.44,3.25,5.07,4.87,7.69l-12.27-17a39.08,39.08,0,0,1,5,5.78s0,0,0,.06C420.26,139.16,421.05,140.32,421.84,141.51Z"/><path d="M439,166.15c-4.07-3.72-8.17-10.33-12.25-17l12.21,16.89Z"/><path d="M358.29,421a27.54,27.54,0,0,1-18.06,25.84l-1.8,25.67H323.06l-1.8-25.67a27.52,27.52,0,0,1-3.51-50.13l-1.82-26.06a117.1,117.1,0,0,0,15.92.65,115.54,115.54,0,0,0,13.75-1.21l-1.87,26.62A27.53,27.53,0,0,1,358.29,421Z"/></g></g></svg>