<svg xmlns="http://www.w3.org/2000/svg" viewBox="0 0 504.28 500"><defs><style>.cls-1{fill:none;}.cls-2{fill:#fff;}</style></defs><g id="Layer_2" data-name="Layer 2"><g id="Layer_1-2" data-name="Layer 1"><rect class="cls-1" x="2.14" width="500" height="500"/><path class="cls-2" d="M439,164c-3.89-5.26-14-19.22-17.14-24.65h-.07c-1.42-2.1-11.74-17.5-13.41-20l21.92-21.33v0a10.12,10.12,0,0,0,.79-.65s0,0,0,0c.68-.56,1.32-1.17,2-1.78l.15.25A90.88,90.88,0,0,0,443.91,81a.66.66,0,0,0,0-.14c0-.38-.07-4.26,0-4.65h0c5.42-23.66-13.38-44.73-37.37-46.33-39.94-3.33-78.2,32.39-107.27,75.24-17.33,25.53-53.07,35.72-60.21,49.5-16,30.82-21.45,77.27-17.06,114.28h-1.1c.47,5.32,1.09,10.43,1.83,15.31h1.14a353.54,353.54,0,0,0,9.76,45.42,132.57,132.57,0,0,0,82.37,38.72v.2A118.54,118.54,0,0,0,345.6,368l0-.32C438.47,358.63,493,241.27,439,164Z"/><path class="cls-2" d="M220.82,268.86c.47,5.32,1.09,10.43,1.83,15.31h-56c-7.19,56.3-66.78,78.61-97.16,111.2,10.1,20-2.49,46.14-23.86,51.09l-1.67,23.92H28.55l-1.67-23.92c-36.93-8.87-35.37-64.64,2-71.49h0c16.42-10.87,32.58-42,38.23-54.89.63-9.25,3.77-51.4,9.35-66.62,5.18-14.13,26.75-44.4,34.64-55.23L103,179.4c-44.48-5.63-40.34-73.23,4.82-73.11,30.74-1,48.36,38.57,27.73,60.77l9.8,16.6h82.32q2.16-7.72,5.09-15.27A249.32,249.32,0,0,0,221,223.23,212.36,212.36,0,0,1,224.09,199h-87.5l-13.36-22.64A34.58,34.58,0,0,1,119,178l9.59,22.27c-35.91,46.83-44,62.61-46.35,122.17-.94,4.68-13.2,32.34-32.53,54.39a36.4,36.4,0,0,1,10.39,6.26c30.95-33.41,94.5-55.67,92-114.22Z"/><path class="cls-2" d="M503.81,100.2c5.7,42.1-41.87,53.26-71.69,54.25,2.4,3.06,4.68,6.23,6.8,9.5-3.87-5.25-13.95-19.18-17.08-24.58,15.68-.16,55.31-1.7,65.14-22.62-15.15.29-43.38-3-53.8-20.92A90.88,90.88,0,0,0,443.91,81C448.68,105.58,489,101.6,503.81,100.2Z"/><path class="cls-2" d="M447.46,293.42c28-67.09.63-122-39.1-174,5.08-4.84,19.92-19.59,24.67-23.8l.15.25c25.32-24.83,6.59-64-26.72-66-39.94-3.33-78.2,32.39-107.27,75.24-24.06,32.83-59.84,33.5-66.45,63.31-17.26,43.48-14.08,110.88-.75,155.53C283.08,398.09,413.64,374.56,447.46,293.42Z"/><path class="cls-2" d="M421.84,139.37c1.63,2.44,3.25,5.07,4.87,7.69l-12.27-17a39.08,39.08,0,0,1,5,5.78l0,.06C420.26,137,421.05,138.18,421.84,139.37Z"/><path class="cls-2" d="M439,164c-4.07-3.72-8.17-10.33-12.25-16.95L438.92,164Z"/><path class="cls-2" d="M358.29,418.86a27.54,27.54,0,0,1-18.06,25.84l-1.8,25.67H323.06l-1.8-25.67a27.52,27.52,0,0,1-3.51-50.13l-1.82-26.06a117.1,117.1,0,0,0,15.92.65A115.54,115.54,0,0,0,345.6,368l-1.87,26.62A27.53,27.53,0,0,1,358.29,418.86Z"/></g></g></svg>